<?xml version="1.0" encoding="UTF-8" standalone="no"?>
<!-- Created with Inkscape (http://www.inkscape.org/) -->

<svg
        width="180"
        height="180"
        viewBox="0 0 180 180"
        version="1.1"
        id="svg1"
        xml:space="preserve"
        xmlns="http://www.w3.org/2000/svg"
><defs
     id="defs1"><linearGradient
       id="swatch6"><stop
         style="stop-color:#ffffff;stop-opacity:1;"
         offset="0"
         id="stop6" /></linearGradient></defs>
    <g
            id="layer1"><circle
       style="fill:#16a34a;fill-opacity:1"
       id="path5"
       cx="90.926636"
       cy="89.884171"
       r="80" />
        <path
                style="fill:#ffffff;fill-opacity:1"
                d="m 54.723908,144.87073 c -0.235506,-0.059 -0.637202,-0.21913 -0.816945,-0.32562 -0.172844,-0.10241 -0.599464,-3.7868 -0.806798,-6.9677 -0.07623,-1.1695 -0.104414,-4.67805 -0.04764,-5.93026 0.16353,-3.60675 0.554277,-6.49367 1.293852,-9.55928 0.811972,-3.3657 2.118653,-6.6354 3.493496,-8.74177 l 0.300485,-0.46037 0.316265,0.0202 c 1.06265,0.0678 1.361155,0.52557 0.86081,1.31999 -0.317016,0.50335 -1.553343,3.99988 -2.233614,6.31703 -1.018834,3.47036 -1.626389,6.5627 -1.928367,9.81502 -0.09827,1.05833 -0.137344,3.91191 -0.06835,4.99106 0.122093,1.90966 0.370114,3.56543 0.820435,5.47714 0.45659,1.93834 0.467172,1.9964 0.46679,2.56119 -3.3e-4,0.48671 -0.01092,0.55699 -0.122289,0.8114 -0.142521,0.32557 -0.362808,0.56266 -0.604998,0.65113 -0.2441,0.0892 -0.616886,0.0976 -0.923134,0.0208 z m 9.131812,-30.41486 c -0.915218,-0.10914 -1.761447,-0.33958 -2.472892,-0.67341 -0.431307,-0.20238 -1.238269,-0.78283 -1.387183,-0.99781 l -0.08748,-0.1263 0.146407,-0.28624 c 0.660691,-1.29174 2.022424,-2.3087 3.936694,-2.93997 1.205443,-0.39752 2.528075,-0.64104 4.292169,-0.79027 0.978194,-0.0827 3.690302,-0.082 4.902108,0.001 2.119485,0.14577 4.246315,0.40321 6.047162,0.73196 0.368861,0.0673 0.6535,0.13405 0.632531,0.14825 -0.125339,0.0849 -1.627576,0.87725 -2.432705,1.28317 -3.937659,1.98528 -7.431862,3.18588 -10.437119,3.58616 -0.86107,0.11469 -2.440883,0.14646 -3.139688,0.0631 z m -7.323328,-2.41457 c -2.129223,-0.82575 -4.030112,-2.53399 -5.172264,-4.64808 -1.655144,-3.06362 -2.02,-7.00256 -1.098619,-11.860537 0.0771,-0.406524 0.153572,-0.757848 0.169933,-0.78072 0.04858,-0.06792 1.327269,1.256977 2.441315,2.529533 2.406868,2.749334 4.080258,5.215094 5.065836,7.464594 1.407758,3.21307 1.168463,5.70256 -0.699729,7.27961 -0.117594,0.0993 -0.228994,0.18049 -0.247557,0.18049 -0.01856,0 -0.225075,-0.0742 -0.458915,-0.16489 z m 13.464056,-4.10057 c -0.525143,-0.0331 -1.377776,-0.17478 -1.851271,-0.30762 -1.62624,-0.45625 -3.052267,-1.37736 -3.977321,-2.56906 -0.361918,-0.46624 -0.368325,-0.41139 0.08494,-0.72719 1.020705,-0.71115 2.552349,-1.62273 3.601417,-2.14344 1.982564,-0.98404 3.681028,-1.52435 5.805723,-1.84691 2.129968,-0.32336 5.291435,-0.355844 10.052711,-0.10329 1.362584,0.0723 2.926159,0.17378 2.953763,0.19174 0.07114,0.0463 -2.290033,1.82971 -3.587366,2.70956 -4.038774,2.73909 -7.618381,4.30764 -10.751939,4.71141 -0.85972,0.11077 -1.531084,0.1352 -2.330658,0.0848 z m -7.631692,-3.43061 c -1.641174,-0.35952 -3.226773,-1.06965 -4.535632,-2.03133 -4.021346,-2.954694 -5.027368,-8.143564 -2.893066,-14.921885 0.288787,-0.917154 1.043595,-2.956119 1.137956,-3.073962 0.05766,-0.07201 3.215188,4.879418 4.799316,7.525959 1.922911,3.212533 2.44783,4.348404 2.788684,6.034434 0.115241,0.57004 0.113988,2.583874 -0.0021,3.299294 -0.195112,1.20292 -0.706582,3.22893 -0.821056,3.25233 -0.02471,0.005 -0.238079,-0.0331 -0.474149,-0.0848 z m 15.848277,-6.484104 c -2.711951,-0.29376 -5.657208,-1.28354 -8.269333,-2.778985 -0.303551,-0.173783 -0.5718,-0.326648 -0.596108,-0.3397 -0.16059,-0.08623 1.608823,-1.608187 2.595478,-2.2325 2.28623,-1.446628 5.26008,-2.460661 8.396672,-2.863123 l 0.693359,-0.08897 h 8.451445 8.451441 l -0.0861,0.07262 c -0.0473,0.03994 -0.441863,0.30819 -0.876727,0.596112 -4.55913,3.018581 -9.065201,5.442936 -12.49247,6.721195 -1.286645,0.47988 -2.017668,0.68521 -3.014408,0.84669 -0.495829,0.0803 -0.675053,0.0912 -1.684387,0.10208 -0.798542,0.009 -1.258265,-0.002 -1.568892,-0.0354 z M 67.244274,94.237939 c -2.506063,-1.531103 -4.555616,-3.478281 -5.55481,-5.27735 -0.789533,-1.421568 -1.023111,-2.77612 -0.725197,-4.205519 0.55428,-2.659458 1.886284,-6.154162 3.740986,-9.815019 0.503765,-0.994345 0.926357,-1.756526 0.958687,-1.729077 0.01772,0.01504 1.30928,2.525795 2.870144,5.579452 1.920513,3.757272 2.856342,5.629898 2.894879,5.792752 0.111218,0.470006 0.163425,1.582869 0.109188,2.327535 -0.184874,2.538324 -1.071289,4.661708 -2.716667,6.507701 -0.330001,0.370238 -1.065764,1.083288 -1.116813,1.082339 -0.01715,-3.19e-4 -0.224327,-0.118585 -0.460397,-0.262814 z m 19.066265,-5.444602 c -2.328236,-0.243209 -4.484404,-1.105841 -6.395372,-2.55864 -0.611951,-0.465232 -1.237323,-1.026433 -1.620654,-1.454354 l -0.222352,-0.248217 0.177171,-0.196559 c 1.234152,-1.369208 3.263475,-2.763007 5.557843,-3.817293 2.281968,-1.048587 5.339739,-1.975054 7.337702,-2.223232 2.768907,-0.343942 7.78127,-0.284716 14.344883,0.169499 1.52072,0.105237 4.60067,0.361002 4.63102,0.38457 0.0377,0.02924 -0.97236,0.748216 -1.71686,1.222137 -3.31926,2.112916 -9.386183,5.032182 -16.265067,7.826383 -1.34773,0.547447 -1.780319,0.668566 -3.027109,0.847544 -0.44913,0.06447 -2.334706,0.09689 -2.801205,0.04816 z M 76.075831,83.350442 c -0.760757,-0.278806 -1.907154,-0.83577 -2.641798,-1.283487 -0.21122,-0.128725 -0.625571,-0.411953 -0.920781,-0.629396 -2.24106,-1.650701 -3.319974,-3.579555 -3.220975,-5.758374 0.04203,-0.925058 0.102492,-1.144431 0.57796,-2.097079 2.251028,-4.510161 5.00691,-9.061816 7.087506,-11.705829 0.85596,-1.08775 1.708676,-2.031606 1.765391,-1.954081 0.04904,0.06703 0.670653,1.517343 0.984882,2.297865 1.026116,2.548788 1.839118,4.980202 2.288927,6.845402 0.348647,1.445713 0.472054,2.253138 0.503796,3.296211 0.02107,0.692413 0.0112,0.886515 -0.06909,1.357945 -0.56612,3.324136 -2.20417,6.40948 -4.569145,8.6062 -0.476889,0.442962 -1.344048,1.140063 -1.41818,1.140063 -0.02942,0 -0.195245,-0.05195 -0.36849,-0.11544 z m 20.581094,-6.142559 c -2.25661,-0.21019 -4.308575,-1.031759 -6.213953,-2.48795 -0.613631,-0.46897 -1.421589,-1.194544 -1.421589,-1.276636 0,-0.07066 1.555639,-1.179653 2.486809,-1.772808 2.809312,-1.789529 5.517744,-2.934649 7.766545,-3.28368 0.66786,-0.103658 0.871043,-0.103446 4.443233,0.0046 1.57087,0.04753 5.1434,0.155314 7.93896,0.239521 6.45466,0.194428 6.42892,0.193516 6.38488,0.226291 -0.0409,0.03045 0.0668,-0.01979 -8.53097,3.978825 -3.35467,1.560178 -6.21122,2.894017 -6.34789,2.964086 -1.35902,0.696751 -2.82961,1.164464 -4.269583,1.357919 -0.48694,0.06542 -1.763544,0.09384 -2.236442,0.0498 z m -9.604059,-4.771692 c -1.977738,-1.338523 -3.404527,-3.097958 -3.837389,-4.732049 -0.390395,-1.473777 -0.121797,-2.905076 0.813021,-4.332407 0.356488,-0.544305 0.464307,-0.668881 2.462764,-2.845521 0.683359,-0.744287 2.655497,-2.901749 4.38253,-4.79436 l 3.140061,-3.44111 0.02925,0.246229 c 0.01609,0.135427 0.228712,2.87148 0.472503,6.080119 0.491398,6.467513 0.478234,6.032023 0.20423,6.756463 -0.762105,2.014926 -2.987875,4.415337 -6.26243,6.753802 -0.471711,0.336863 -0.879757,0.612479 -0.90677,0.612479 -0.02701,0 -0.251007,-0.13664 -0.497766,-0.303645 z M 106.4124,66.330869 c -1.29484,-0.173436 -2.49015,-0.637268 -3.47096,-1.346881 -0.42066,-0.304344 -1.13391,-0.96415 -1.13391,-1.048942 0,-0.01945 0.1504,-0.177359 0.33421,-0.350906 1.8437,-1.740684 3.9137,-2.919942 6.10452,-3.477677 0.26036,-0.06628 0.73273,-0.161563 1.04971,-0.211732 0.50507,-0.07994 0.67407,-0.09074 1.36698,-0.0874 0.43487,0.0021 4.60279,0.01597 9.26205,0.03082 7.88038,0.02511 8.46035,0.03091 8.31325,0.08302 -0.13408,0.0475 -12.72282,4.319251 -16.40281,5.565983 -2.09368,0.709309 -2.8222,0.860922 -4.22219,0.878689 -0.57546,0.0073 -0.9713,-0.0042 -1.20085,-0.03497 z m -7.273703,-3.411787 c -0.63095,-0.397389 -1.37633,-1.028016 -1.786397,-1.511388 -1.079294,-1.272227 -1.337667,-2.606521 -0.7603,-3.926353 0.177286,-0.405268 0.498537,-0.89921 0.844357,-1.298249 0.13042,-0.150495 2.39225,-2.368221 5.026293,-4.928281 l 4.78916,-4.654654 0.0114,4.959172 c 0.0112,4.843164 0.009,4.967071 -0.079,5.296818 -0.41389,1.545392 -1.84608,3.182749 -3.86494,4.418623 -0.49539,0.303262 -1.37692,0.762179 -1.97719,1.029317 -0.53001,0.235867 -1.853253,0.741054 -1.941043,0.741054 -0.0342,0 -0.15232,-0.05673 -0.26241,-0.126059 z m 17.962513,-4.896194 c -1.08523,-0.08481 -2.01554,-0.327098 -2.80121,-0.729549 -0.47889,-0.245308 -1.24247,-0.885288 -1.24247,-1.041359 0,-0.02377 0.28972,-0.189675 0.64383,-0.368681 3.17422,-1.604621 7.04636,-2.667994 11.28388,-3.098797 2.18332,-0.221966 5.01633,-0.249686 6.91265,-0.06764 0.7648,0.07342 1.45593,0.178361 1.91812,0.291245 0.45947,0.112219 0.612,0.17985 0.612,0.271359 0,0.07232 -0.0795,0.0987 -0.67771,0.224995 -1.12552,0.237606 -3.73783,1.066496 -6.93524,2.200562 -1.41487,0.50183 -3.75304,1.351075 -4.49548,1.632806 -0.68441,0.259709 -1.37808,0.41917 -2.46235,0.566051 -1.0829,0.146693 -1.93237,0.183374 -2.75602,0.119006 z m -6.19875,-2.858984 c -0.66913,-0.525796 -1.23382,-1.388209 -1.43355,-2.189364 -0.0923,-0.370235 -0.0929,-1.134844 -10e-4,-1.536184 0.14203,-0.621986 0.56568,-1.417489 1.11149,-2.087115 0.44404,-0.544764 0.89605,-0.951426 2.19622,-1.975907 3.27799,-2.582916 5.3783,-4.326561 6.55094,-5.438501 0.52776,-0.500436 0.63836,-0.556764 0.81306,-0.414082 0.38453,0.314059 0.3462,1.820964 -0.084,3.301864 -1.07594,3.703922 -3.91173,7.251973 -7.83365,9.801227 -0.45891,0.29829 -1.08931,0.68417 -1.1177,0.68417 -0.009,0 -0.0993,-0.06575 -0.20153,-0.146108 z m 8.18249,-3.038844 c -0.0537,-0.217894 0.0144,-0.735256 0.13966,-1.060774 0.37489,-0.974201 1.10156,-1.80522 2.52722,-2.890125 1.72118,-1.309797 3.79013,-2.423066 6.96082,-3.745508 2.59877,-1.083902 6.69808,-2.465315 10.30121,-3.471365 0.22364,-0.06244 0.46454,-0.130786 0.53533,-0.151868 l 0.12872,-0.03833 -0.16722,0.232495 c -0.23585,0.327923 -1.02097,1.222641 -1.50213,1.711801 -0.89884,0.913795 -2.12704,1.972483 -3.24701,2.798885 -3.80481,2.807471 -8.38266,4.922791 -13.53309,6.253325 -0.94954,0.2453 -1.9728,0.486745 -2.06285,0.486745 -0.0274,0 -0.0637,-0.05638 -0.0807,-0.125279 z"
                id="path23"/></g></svg>
